<svg width="155" height="169" viewBox="0 0 155 169" fill="none" xmlns="http://www.w3.org/2000/svg">
<g clip-path="url(#clip0_354_216)">
<path d="M70.3374 13.4176C70.0471 13.1266 69.7023 12.8957 69.3226 12.7381C68.9429 12.5806 68.5359 12.4995 68.1249 12.4995C67.7138 12.4995 67.3068 12.5806 66.9272 12.7381C66.5475 12.8957 66.2027 13.1266 65.9124 13.4176L28.4124 50.9176C28.1224 51.2083 27.8925 51.5534 27.7359 51.933C27.5794 52.3127 27.4991 52.7194 27.4999 53.1301V96.8801C27.4999 97.7089 27.8291 98.5038 28.4152 99.0898C29.0012 99.6759 29.7961 100.005 30.6249 100.005H58.7499C59.5787 100.005 60.3735 99.6759 60.9596 99.0898C61.5456 98.5038 61.8749 97.7089 61.8749 96.8801V71.8801H74.3749V96.8801C74.3749 97.7089 74.7041 98.5038 75.2902 99.0898C75.8762 99.6759 76.6711 100.005 77.4999 100.005H105.625C106.454 100.005 107.249 99.6759 107.835 99.0898C108.421 98.5038 108.75 97.7089 108.75 96.8801V53.1301C108.751 52.7194 108.67 52.3127 108.514 51.933C108.357 51.5534 108.127 51.2083 107.837 50.9176L99.3749 42.4614V21.8801C99.3749 21.0513 99.0457 20.2564 98.4596 19.6704C97.8736 19.0843 97.0787 18.7551 96.2499 18.7551H89.9999C89.1711 18.7551 88.3762 19.0843 87.7902 19.6704C87.2041 20.2564 86.8749 21.0513 86.8749 21.8801V29.9613L70.3374 13.4176ZM33.7499 93.7551V54.4238L68.1249 20.0488L102.5 54.4238V93.7551H80.6249V68.7551C80.6249 67.9263 80.2957 67.1314 79.7096 66.5454C79.1235 65.9593 78.3287 65.6301 77.4999 65.6301H58.7499C57.9211 65.6301 57.1262 65.9593 56.5402 66.5454C55.9541 67.1314 55.6249 67.9263 55.6249 68.7551V93.7551H33.7499Z" fill="#E6E6E6" fill-opacity="0.6"/>
<path d="M89.0873 13.4176C88.797 13.1266 88.4521 12.8957 88.0725 12.7381C87.6928 12.5806 87.2858 12.4995 86.8748 12.4995C86.4637 12.4995 86.0567 12.5806 85.6771 12.7381C85.2974 12.8957 84.9526 13.1266 84.6623 13.4176L47.1623 50.9176C46.8722 51.2083 46.6424 51.5534 46.4858 51.933C46.3292 52.3127 46.249 52.7194 46.2498 53.1301V96.8801C46.2498 97.7089 46.579 98.5038 47.1651 99.0898C47.7511 99.6759 48.546 100.005 49.3748 100.005H77.4998C78.3286 100.005 79.1234 99.6759 79.7095 99.0898C80.2955 98.5038 80.6248 97.7089 80.6248 96.8801V71.8801H93.1248V96.8801C93.1248 97.7089 93.454 98.5038 94.0401 99.0898C94.6261 99.6759 95.421 100.005 96.2498 100.005H124.375C125.204 100.005 125.998 99.6759 126.584 99.0898C127.171 98.5038 127.5 97.7089 127.5 96.8801V53.1301C127.501 52.7194 127.42 52.3127 127.264 51.933C127.107 51.5534 126.877 51.2083 126.587 50.9176L118.125 42.4614V21.8801C118.125 21.0513 117.796 20.2564 117.209 19.6704C116.623 19.0843 115.829 18.7551 115 18.7551H108.75C107.921 18.7551 107.126 19.0843 106.54 19.6704C105.954 20.2564 105.625 21.0513 105.625 21.8801V29.9613L89.0873 13.4176ZM52.4998 93.7551V54.4238L86.8748 20.0488L121.25 54.4238V93.7551H99.3748V68.7551C99.3748 67.9263 99.0455 67.1314 98.4595 66.5454C97.8734 65.9593 97.0786 65.6301 96.2498 65.6301H77.4998C76.671 65.6301 75.8761 65.9593 75.2901 66.5454C74.704 67.1314 74.3748 67.9263 74.3748 68.7551V93.7551H52.4998Z" fill="#FF9505"/>
</g>
<path d="M27.1312 140.953C26.9021 140.953 26.7771 140.849 26.7562 140.641L26.8656 138.016C26.8865 137.818 26.9698 137.719 27.1156 137.719H28.1937L27.2562 120.109L22.2719 140.844C22.2302 141.052 22.1052 141.156 21.8969 141.156L18.5844 141.203C18.3969 141.203 18.2771 141.089 18.225 140.859L13.0531 120.828L12.6 137.625L14.0375 137.562C14.1729 137.562 14.2562 137.661 14.2875 137.859L14.5531 140.641C14.5323 140.849 14.4073 140.953 14.1781 140.953L7.39687 141.062C7.21979 141.062 7.12604 140.938 7.11562 140.688L7.30312 137.766C7.32396 137.599 7.40729 137.5 7.55312 137.469L9.61562 137.656L10.5375 120.766L8.6 120.953C8.39167 120.953 8.28229 120.839 8.27187 120.609L8.13125 117.703C8.15208 117.505 8.27708 117.396 8.50625 117.375L14.9125 117.031C15.2146 117.031 15.4073 117.177 15.4906 117.469L20.4594 137.281L25.3969 117.609C25.4594 117.318 25.6521 117.172 25.975 117.172L32.1156 117.219C32.2406 117.24 32.3292 117.271 32.3812 117.312C32.4437 117.344 32.4802 117.422 32.4906 117.547L32.6625 120.609C32.6417 120.734 32.6156 120.823 32.5844 120.875C32.5635 120.927 32.4958 120.953 32.3812 120.953L30.4594 120.938L31.5219 137.672L33.6 137.625C33.7458 137.656 33.8292 137.755 33.85 137.922L33.5687 140.531C33.5271 140.781 33.4333 140.906 33.2875 140.906L27.1312 140.953ZM79.6794 123.016C82.7627 123.016 84.3044 124.932 84.3044 128.766C84.3044 129.672 84.2835 130.844 84.2419 132.281L84.1325 135.344C84.1117 135.958 84.0856 136.542 84.0544 137.094L83.9919 138.578L84.9294 138.5C85.2731 138.479 85.6637 138.448 86.1012 138.406C86.32 138.406 86.4294 138.505 86.4294 138.703L86.1481 141.172C86.1169 141.359 86.0023 141.464 85.8044 141.484L81.2887 141.766C81.1429 141.766 81.07 141.651 81.07 141.422L81.2887 139.594C79.5492 140.938 77.6585 141.609 75.6169 141.609C74.0231 141.609 72.7106 141.146 71.6794 140.219C70.5856 139.24 70.0387 137.922 70.0387 136.266C70.0387 134.109 70.7835 132.594 72.2731 131.719C73.5856 130.948 75.7471 130.562 78.7575 130.562C79.3825 130.562 80.0492 130.578 80.7575 130.609C80.7679 130.339 80.7731 130.089 80.7731 129.859V129.266C80.7731 127.234 79.8825 126.219 78.1012 126.219C77.1742 126.219 76.0283 126.5 74.6637 127.062L74.7262 127.656C74.7471 127.854 74.7575 128.01 74.7575 128.125C74.7575 128.354 74.6429 128.469 74.4137 128.469L71.7731 128.516C71.5856 128.484 71.4815 128.37 71.4606 128.172L71.195 123.703C71.195 123.453 71.3096 123.312 71.5387 123.281L74.1481 122.938C74.3669 122.938 74.4762 123.052 74.4762 123.281V124.578C76.3408 123.536 78.0752 123.016 79.6794 123.016ZM76.7106 138.656C77.9085 138.656 79.2262 138.312 80.6637 137.625C80.6846 136.938 80.695 136.182 80.695 135.359C80.7054 134.526 80.721 133.703 80.7419 132.891C78.0023 132.891 76.1012 133.125 75.0387 133.594C74.0596 134.031 73.57 134.76 73.57 135.781C73.57 137.698 74.6169 138.656 76.7106 138.656ZM106.821 126.891C105.498 126.891 103.987 127.432 102.289 128.516L102.477 137.875L104.18 137.688C104.357 137.688 104.446 137.776 104.446 137.953L104.149 140.375C104.107 140.604 103.993 140.719 103.805 140.719H97.2894C97.1227 140.719 97.0394 140.594 97.0394 140.344L97.3519 137.953C97.3935 137.734 97.5081 137.625 97.6956 137.625H99.0238V127.297L96.6331 127.234C96.4248 127.234 96.3206 127.109 96.3206 126.859L96.6019 124.156C96.6227 123.979 96.7477 123.87 96.9769 123.828L101.305 123.188C101.493 123.188 101.586 123.307 101.586 123.547V126.25C103.732 124.104 105.841 123.031 107.914 123.031C110.289 123.031 111.706 124.161 112.164 126.422C112.31 127.172 112.383 127.875 112.383 128.531C112.383 129.177 112.378 129.724 112.368 130.172C112.357 130.609 112.341 131.094 112.321 131.625L112.289 133.25C112.269 133.823 112.248 134.396 112.227 134.969L112.164 136.625C112.144 137.156 112.123 137.646 112.102 138.094L113.899 138.016C114.118 138.016 114.227 138.141 114.227 138.391V140.688C114.227 140.812 114.196 140.896 114.133 140.938C114.081 140.969 113.993 140.99 113.868 141L109.336 141.344C109.107 141.344 108.993 141.229 108.993 141C109.024 139.865 109.039 138.797 109.039 137.797L109.071 135.188C109.071 134.448 109.071 133.755 109.071 133.109V130.25C109.071 128.958 108.961 128.135 108.743 127.781C108.524 127.417 108.269 127.177 107.977 127.062C107.685 126.948 107.3 126.891 106.821 126.891ZM124.353 138.484C124.373 138.286 124.457 138.188 124.603 138.188H126.618V119.484L124.384 119.188C124.269 119.167 124.191 119.135 124.149 119.094C124.118 119.052 124.103 118.969 124.103 118.844L124.04 116.719C124.04 116.531 124.165 116.422 124.415 116.391L129.212 115.891C129.41 115.891 129.524 116.016 129.556 116.266L129.853 119.047L129.649 130.859L131.649 130.781L135.415 126.141L133.509 126.359C133.342 126.359 133.259 126.26 133.259 126.062L133.384 123.547C133.405 123.339 133.53 123.234 133.759 123.234L140.837 123.172C140.983 123.172 141.056 123.297 141.056 123.547L140.899 125.906C140.879 126.104 140.795 126.203 140.649 126.203L139.071 126.062L134.181 131.891L138.681 137.922L141.259 138.016C141.457 138.016 141.566 138.141 141.587 138.391L141.743 140.531C141.743 140.656 141.712 140.74 141.649 140.781C141.597 140.812 141.509 140.833 141.384 140.844L136.618 141.031C136.483 141.031 136.342 140.917 136.196 140.688L131.462 133.453L129.603 133.594L129.524 138.047L131.118 137.875C131.285 137.875 131.368 137.974 131.368 138.172L131.243 140.531C131.233 140.656 131.201 140.74 131.149 140.781C131.097 140.812 131.004 140.833 130.868 140.844L124.728 141.062C124.571 141.062 124.483 140.932 124.462 140.672L124.353 138.484Z" fill="white"/>
<path d="M43.4912 138.484C43.5121 138.286 43.5954 138.188 43.7412 138.188H45.7569V119.484L43.5225 119.188C43.4079 119.167 43.3298 119.135 43.2881 119.094C43.2569 119.052 43.2412 118.969 43.2412 118.844L43.1787 116.719C43.1787 116.531 43.3037 116.422 43.5537 116.391L48.3506 115.891C48.5485 115.891 48.6631 116.016 48.6944 116.266L48.9912 119.047L48.7881 130.859L50.7881 130.781L54.5537 126.141L52.6475 126.359C52.4808 126.359 52.3975 126.26 52.3975 126.062L52.5225 123.547C52.5433 123.339 52.6683 123.234 52.8975 123.234L59.9756 123.172C60.1215 123.172 60.1944 123.297 60.1944 123.547L60.0381 125.906C60.0173 126.104 59.934 126.203 59.7881 126.203L58.21 126.062L53.3194 131.891L57.8194 137.922L60.3975 138.016C60.5954 138.016 60.7048 138.141 60.7256 138.391L60.8819 140.531C60.8819 140.656 60.8506 140.74 60.7881 140.781C60.736 140.812 60.6475 140.833 60.5225 140.844L55.7569 141.031C55.6215 141.031 55.4808 140.917 55.335 140.688L50.6006 133.453L48.7412 133.594L48.6631 138.047L50.2569 137.875C50.4235 137.875 50.5069 137.974 50.5069 138.172L50.3819 140.531C50.3715 140.656 50.3402 140.74 50.2881 140.781C50.236 140.812 50.1423 140.833 50.0069 140.844L43.8662 141.062C43.71 141.062 43.6215 140.932 43.6006 140.672L43.4912 138.484Z" fill="#FF9505"/>
<defs>
<clipPath id="clip0_354_216">
<rect width="100" height="100" fill="white" transform="translate(27.5)"/>
</clipPath>
</defs>
</svg>
